<svg width="40" height="40" viewBox="0 0 40 40" fill="none" xmlns="http://www.w3.org/2000/svg">
<rect width="40" height="40" rx="8" fill="#165DFF"/>
<path d="M10.3118 25H8.34304L11.9276 14.8182H14.2045L17.794 25H15.8253L13.1058 16.9062H13.0263L10.3118 25ZM10.3764 21.0078H15.7457V22.4893H10.3764V21.0078ZM19.1351 25V14.8182H22.9533C23.7355 14.8182 24.3917 14.964 24.9221 15.2557C25.4557 15.5473 25.8584 15.9484 26.1301 16.4588C26.4052 16.9659 26.5428 17.5426 26.5428 18.1889C26.5428 18.8419 26.4052 19.4219 26.1301 19.929C25.8551 20.4361 25.449 20.8355 24.9121 21.1271C24.3752 21.4155 23.714 21.5597 22.9284 21.5597H20.3979V20.0433H22.6799C23.1373 20.0433 23.5118 19.9638 23.8034 19.8047C24.0951 19.6456 24.3105 19.4268 24.4498 19.1484C24.5923 18.87 24.6635 18.5502 24.6635 18.1889C24.6635 17.8277 24.5923 17.5095 24.4498 17.2344C24.3105 16.9593 24.0935 16.7455 23.7985 16.593C23.5068 16.4373 23.1306 16.3594 22.6699 16.3594H20.9796V25H19.1351ZM29.9893 14.8182V25H28.1449V14.8182H29.9893Z" fill="white"/>
</svg>
