<svg width="40" height="40" viewBox="0 0 40 40" fill="none" xmlns="http://www.w3.org/2000/svg">
<rect width="40" height="40" rx="8" fill="#165DFF"/>
<path d="M24.8756 9.76562L9.47078 19.8161C8.82162 20.2397 8.87597 21.2077 9.5705 21.5518C12.6474 23.0762 19.5647 26.5236 24.1085 28.9425" stroke="white" stroke-width="2"/>
<path d="M30.012 19.739C30.012 22.5829 29.4335 25.1082 28.5449 26.8855C27.6263 28.7225 26.5424 29.4781 25.6425 29.4781C24.7425 29.4781 23.6586 28.7225 22.7401 26.8855C21.8514 25.1082 21.2729 22.5829 21.2729 19.739C21.2729 16.8951 21.8514 14.3699 22.7401 12.5926C23.6586 10.7555 24.7425 10 25.6425 10C26.5424 10 27.6263 10.7555 28.5449 12.5926C29.4335 14.3699 30.012 16.8951 30.012 19.739Z" stroke="white" stroke-width="2"/>
</svg>
