<svg width="40" height="40" viewBox="0 0 40 40" fill="none" xmlns="http://www.w3.org/2000/svg">
<rect width="40" height="40" rx="8" fill="#165DFF"/>
<path d="M11.5376 17.6172C11.4912 17.183 11.2957 16.8449 10.951 16.603C10.6096 16.361 10.1655 16.2401 9.61861 16.2401C9.23414 16.2401 8.90436 16.2981 8.62926 16.4141C8.35417 16.5301 8.1437 16.6875 7.99787 16.8864C7.85204 17.0852 7.77746 17.3123 7.77415 17.5675C7.77415 17.7796 7.82221 17.9635 7.91832 18.1193C8.01776 18.2751 8.15199 18.4077 8.32102 18.517C8.49006 18.6231 8.67732 18.7126 8.88281 18.7855C9.08831 18.8584 9.29545 18.9197 9.50426 18.9695L10.4588 19.2081C10.8433 19.2976 11.2128 19.4186 11.5675 19.571C11.9254 19.7235 12.2453 19.9157 12.527 20.1477C12.812 20.3797 13.0374 20.6598 13.2031 20.9879C13.3688 21.3161 13.4517 21.7005 13.4517 22.1413C13.4517 22.7379 13.2992 23.2633 12.9943 23.7173C12.6894 24.1681 12.2486 24.5211 11.6719 24.7763C11.0985 25.0282 10.4041 25.1541 9.58878 25.1541C8.79664 25.1541 8.1089 25.0315 7.52557 24.7862C6.94555 24.541 6.49148 24.183 6.16335 23.7124C5.83854 23.2417 5.66288 22.6683 5.63636 21.9922H7.45099C7.47751 22.3468 7.58688 22.6418 7.77912 22.8771C7.97135 23.1125 8.22159 23.2881 8.52983 23.4041C8.84138 23.5201 9.18939 23.5781 9.57386 23.5781C9.97491 23.5781 10.3262 23.5185 10.6278 23.3991C10.9328 23.2765 11.1714 23.1075 11.3438 22.892C11.5161 22.6733 11.6039 22.4181 11.6072 22.1264C11.6039 21.8613 11.526 21.6425 11.3736 21.4702C11.2211 21.2945 11.0073 21.1487 10.7322 21.0327C10.4605 20.9134 10.1423 20.8073 9.7777 20.7145L8.61932 20.4162C7.78078 20.2008 7.1179 19.8743 6.63068 19.4368C6.14678 18.996 5.90483 18.411 5.90483 17.6818C5.90483 17.0819 6.06723 16.5566 6.39205 16.1058C6.72017 15.6551 7.16596 15.3054 7.7294 15.0568C8.29285 14.8049 8.93087 14.679 9.64347 14.679C10.366 14.679 10.9991 14.8049 11.5426 15.0568C12.0895 15.3054 12.5187 15.6518 12.8303 16.0959C13.1418 16.5367 13.3026 17.0438 13.3125 17.6172H11.5376ZM18.5463 25H15.0961V14.8182H18.6159C19.6268 14.8182 20.4952 15.022 21.2211 15.4297C21.9502 15.834 22.5104 16.4157 22.9015 17.1747C23.2926 17.9337 23.4881 18.8419 23.4881 19.8991C23.4881 20.9598 23.2909 21.8712 22.8965 22.6335C22.5054 23.3958 21.9403 23.9808 21.2012 24.3885C20.4654 24.7962 19.5804 25 18.5463 25ZM16.9405 23.4041H18.4569C19.1661 23.4041 19.7578 23.2749 20.2317 23.0163C20.7057 22.7545 21.062 22.3651 21.3006 21.848C21.5392 21.3277 21.6586 20.678 21.6586 19.8991C21.6586 19.1203 21.5392 18.474 21.3006 17.9602C21.062 17.4432 20.709 17.0571 20.2417 16.8018C19.7776 16.5433 19.2009 16.4141 18.5115 16.4141H16.9405V23.4041ZM25.2406 25V14.8182H27.085V19.4964H27.2093L31.1816 14.8182H33.4338L29.4963 19.3871L33.4686 25H31.2512L28.2136 20.6349L27.085 21.9673V25H25.2406Z" fill="white"/>
</svg>
