<svg width="733" height="130" viewBox="0 0 733 130" fill="none" xmlns="http://www.w3.org/2000/svg">
<circle cx="4" cy="69" r="3.5" fill="#5B89FF" fill-opacity="0.3" stroke="#5B89FF"/>
<circle cx="64" cy="69" r="3.5" fill="#5B89FF" fill-opacity="0.3" stroke="#5B89FF"/>
<circle cx="113" cy="69" r="3.5" fill="#5B89FF" fill-opacity="0.3" stroke="#5B89FF"/>
<circle cx="118" cy="69" r="3.5" fill="#5B89FF" fill-opacity="0.3" stroke="#5B89FF"/>
<circle cx="188" cy="77" r="3.5" fill="#5B89FF" fill-opacity="0.3" stroke="#5B89FF"/>
<circle cx="175" cy="80" r="3.5" fill="#5B89FF" fill-opacity="0.3" stroke="#5B89FF"/>
<circle cx="218" cy="77" r="3.5" fill="#5B89FF" fill-opacity="0.3" stroke="#5B89FF"/>
<circle cx="236" cy="63" r="3.5" fill="#5B89FF" fill-opacity="0.3" stroke="#5B89FF"/>
<circle cx="260" cy="84" r="3.5" fill="#5B89FF" fill-opacity="0.3" stroke="#5B89FF"/>
<circle cx="285" cy="126" r="3.5" fill="#5B89FF" fill-opacity="0.3" stroke="#5B89FF"/>
<circle cx="379" cy="76" r="3.5" fill="#5B89FF" fill-opacity="0.3" stroke="#5B89FF"/>
<circle cx="345" cy="77" r="3.5" fill="#5B89FF" fill-opacity="0.3" stroke="#5B89FF"/>
<circle cx="316" cy="72" r="3.5" fill="#5B89FF" fill-opacity="0.3" stroke="#5B89FF"/>
<circle cx="329" cy="81" r="3.5" fill="#5B89FF" fill-opacity="0.3" stroke="#5B89FF"/>
<circle cx="426" cy="69" r="3.5" fill="#5B89FF" fill-opacity="0.3" stroke="#5B89FF"/>
<circle cx="635" cy="69" r="3.5" fill="#5B89FF" fill-opacity="0.3" stroke="#5B89FF"/>
<circle cx="672" cy="85" r="3.5" fill="#5B89FF" fill-opacity="0.3" stroke="#5B89FF"/>
<circle cx="699" cy="75" r="3.5" fill="#5B89FF" fill-opacity="0.3" stroke="#5B89FF"/>
<circle cx="658" cy="69" r="3.5" fill="#5B89FF" fill-opacity="0.3" stroke="#5B89FF"/>
<circle cx="561" cy="69" r="3.5" fill="#5B89FF" fill-opacity="0.3" stroke="#5B89FF"/>
<circle cx="521" cy="72" r="3.5" fill="#5B89FF" fill-opacity="0.3" stroke="#5B89FF"/>
<circle cx="64" cy="69" r="3.5" fill="#5B89FF" fill-opacity="0.3" stroke="#5B89FF"/>
<circle cx="27" cy="59" r="3.5" fill="#5B89FF" fill-opacity="0.3" stroke="#5B89FF"/>
<circle cx="61" cy="59" r="3.5" fill="#5B89FF" fill-opacity="0.3" stroke="#5B89FF"/>
<circle cx="111" cy="55" r="3.5" fill="#5B89FF" fill-opacity="0.3" stroke="#5B89FF"/>
<circle cx="131" cy="73" r="3.5" fill="#5B89FF" fill-opacity="0.3" stroke="#5B89FF"/>
<circle cx="183" cy="63" r="3.5" fill="#5B89FF" fill-opacity="0.3" stroke="#5B89FF"/>
<circle cx="156" cy="98" r="3.5" fill="#5B89FF" fill-opacity="0.3" stroke="#5B89FF"/>
<circle cx="219" cy="59" r="3.5" fill="#5B89FF" fill-opacity="0.3" stroke="#5B89FF"/>
<circle cx="219" cy="59" r="3.5" fill="#5B89FF" fill-opacity="0.3" stroke="#5B89FF"/>
<circle cx="91" cy="94" r="3.5" transform="rotate(-180 91 94)" fill="#5B89FF" fill-opacity="0.3" stroke="#5B89FF"/>
<circle cx="54" cy="78" r="3.5" transform="rotate(-180 54 78)" fill="#5B89FF" fill-opacity="0.3" stroke="#5B89FF"/>
<circle cx="27" cy="88" r="3.5" transform="rotate(-180 27 88)" fill="#5B89FF" fill-opacity="0.3" stroke="#5B89FF"/>
<circle cx="68" cy="94" r="3.5" transform="rotate(-180 68 94)" fill="#5B89FF" fill-opacity="0.3" stroke="#5B89FF"/>
<circle cx="165" cy="94" r="3.5" transform="rotate(-180 165 94)" fill="#5B89FF" fill-opacity="0.3" stroke="#5B89FF"/>
<circle cx="205" cy="91" r="3.5" transform="rotate(-180 205 91)" fill="#5B89FF" fill-opacity="0.3" stroke="#5B89FF"/>
<circle cx="662" cy="94" r="3.5" transform="rotate(-180 662 94)" fill="#5B89FF" fill-opacity="0.3" stroke="#5B89FF"/>
<circle cx="699" cy="104" r="3.5" transform="rotate(-180 699 104)" fill="#5B89FF" fill-opacity="0.3" stroke="#5B89FF"/>
<circle cx="665" cy="104" r="3.5" transform="rotate(-180 665 104)" fill="#5B89FF" fill-opacity="0.3" stroke="#5B89FF"/>
<circle cx="615" cy="108" r="3.5" transform="rotate(-180 615 108)" fill="#5B89FF" fill-opacity="0.3" stroke="#5B89FF"/>
<circle cx="595" cy="90" r="3.5" transform="rotate(-180 595 90)" fill="#5B89FF" fill-opacity="0.3" stroke="#5B89FF"/>
<circle cx="543" cy="100" r="3.5" transform="rotate(-180 543 100)" fill="#5B89FF" fill-opacity="0.3" stroke="#5B89FF"/>
<circle cx="570" cy="65" r="3.5" transform="rotate(-180 570 65)" fill="#5B89FF" fill-opacity="0.3" stroke="#5B89FF"/>
<circle cx="507" cy="104" r="3.5" transform="rotate(-180 507 104)" fill="#5B89FF" fill-opacity="0.3" stroke="#5B89FF"/>
<circle cx="507" cy="104" r="3.5" transform="rotate(-180 507 104)" fill="#5B89FF" fill-opacity="0.3" stroke="#5B89FF"/>
<circle cx="268" cy="59" r="3.5" fill="#5B89FF" fill-opacity="0.3" stroke="#5B89FF"/>
<circle cx="289" cy="24" r="3.5" fill="#5B89FF" fill-opacity="0.3" stroke="#5B89FF"/>
<circle cx="480" cy="71" r="3.5" fill="#5B89FF" fill-opacity="0.3" stroke="#5B89FF"/>
<circle cx="408" cy="72" r="3.5" fill="#5B89FF" fill-opacity="0.3" stroke="#5B89FF"/>
<circle cx="337" cy="81" r="3.5" fill="#5B89FF" fill-opacity="0.3" stroke="#5B89FF"/>
<circle cx="329" cy="75" r="3.5" fill="#5B89FF" fill-opacity="0.3" stroke="#5B89FF"/>
<circle cx="525" cy="68" r="3.5" fill="#5B89FF" fill-opacity="0.3" stroke="#5B89FF"/>
<circle cx="620" cy="68" r="3.5" fill="#5B89FF" fill-opacity="0.3" stroke="#5B89FF"/>
<circle cx="658" cy="73" r="3.5" fill="#5B89FF" fill-opacity="0.3" stroke="#5B89FF"/>
<circle cx="722" cy="69" r="3.5" fill="#5B89FF" fill-opacity="0.3" stroke="#5B89FF"/>
<circle cx="624" cy="77" r="3.5" fill="#5B89FF" fill-opacity="0.3" stroke="#5B89FF"/>
<circle cx="616" cy="59" r="3.5" fill="#5B89FF" fill-opacity="0.3" stroke="#5B89FF"/>
<circle cx="464" cy="67" r="3.5" fill="#5B89FF" fill-opacity="0.3" stroke="#5B89FF"/>
<circle cx="41" cy="55" r="3.5" fill="#5B89FF" fill-opacity="0.3" stroke="#5B89FF"/>
<circle cx="471" cy="4" r="3.5" transform="rotate(-180 471 4)" fill="#5B89FF" fill-opacity="0.3" stroke="#5B89FF"/>
<circle cx="377" cy="54" r="3.5" transform="rotate(-180 377 54)" fill="#5B89FF" fill-opacity="0.3" stroke="#5B89FF"/>
<circle cx="411" cy="53" r="3.5" transform="rotate(-180 411 53)" fill="#5B89FF" fill-opacity="0.3" stroke="#5B89FF"/>
<circle cx="440" cy="58" r="3.5" transform="rotate(-180 440 58)" fill="#5B89FF" fill-opacity="0.3" stroke="#5B89FF"/>
<circle cx="427" cy="49" r="3.5" transform="rotate(-180 427 49)" fill="#5B89FF" fill-opacity="0.3" stroke="#5B89FF"/>
<circle cx="330" cy="61" r="3.5" transform="rotate(-180 330 61)" fill="#5B89FF" fill-opacity="0.3" stroke="#5B89FF"/>
<circle cx="121" cy="61" r="3.5" transform="rotate(-180 121 61)" fill="#5B89FF" fill-opacity="0.3" stroke="#5B89FF"/>
<circle cx="84" cy="45" r="3.5" transform="rotate(-180 84 45)" fill="#5B89FF" fill-opacity="0.3" stroke="#5B89FF"/>
<circle cx="57" cy="55" r="3.5" transform="rotate(-180 57 55)" fill="#5B89FF" fill-opacity="0.3" stroke="#5B89FF"/>
<circle cx="98" cy="61" r="3.5" transform="rotate(-180 98 61)" fill="#5B89FF" fill-opacity="0.3" stroke="#5B89FF"/>
<circle cx="195" cy="61" r="3.5" transform="rotate(-180 195 61)" fill="#5B89FF" fill-opacity="0.3" stroke="#5B89FF"/>
<circle cx="235" cy="58" r="3.5" transform="rotate(-180 235 58)" fill="#5B89FF" fill-opacity="0.3" stroke="#5B89FF"/>
<circle cx="692" cy="61" r="3.5" transform="rotate(-180 692 61)" fill="#5B89FF" fill-opacity="0.3" stroke="#5B89FF"/>
<circle cx="729" cy="71" r="3.5" transform="rotate(-180 729 71)" fill="#5B89FF" fill-opacity="0.3" stroke="#5B89FF"/>
<circle cx="695" cy="71" r="3.5" transform="rotate(-180 695 71)" fill="#5B89FF" fill-opacity="0.3" stroke="#5B89FF"/>
<circle cx="645" cy="75" r="3.5" transform="rotate(-180 645 75)" fill="#5B89FF" fill-opacity="0.3" stroke="#5B89FF"/>
<circle cx="625" cy="57" r="3.5" transform="rotate(-180 625 57)" fill="#5B89FF" fill-opacity="0.3" stroke="#5B89FF"/>
<circle cx="573" cy="67" r="3.5" transform="rotate(-180 573 67)" fill="#5B89FF" fill-opacity="0.3" stroke="#5B89FF"/>
<circle cx="600" cy="32" r="3.5" transform="rotate(-180 600 32)" fill="#5B89FF" fill-opacity="0.3" stroke="#5B89FF"/>
<circle cx="537" cy="71" r="3.5" transform="rotate(-180 537 71)" fill="#5B89FF" fill-opacity="0.3" stroke="#5B89FF"/>
<circle cx="537" cy="71" r="3.5" transform="rotate(-180 537 71)" fill="#5B89FF" fill-opacity="0.3" stroke="#5B89FF"/>
<circle cx="488" cy="71" r="3.5" transform="rotate(-180 488 71)" fill="#5B89FF" fill-opacity="0.3" stroke="#5B89FF"/>
<circle cx="467" cy="106" r="3.5" transform="rotate(-180 467 106)" fill="#5B89FF" fill-opacity="0.3" stroke="#5B89FF"/>
<circle cx="276" cy="59" r="3.5" transform="rotate(-180 276 59)" fill="#5B89FF" fill-opacity="0.3" stroke="#5B89FF"/>
<circle cx="348" cy="58" r="3.5" transform="rotate(-180 348 58)" fill="#5B89FF" fill-opacity="0.3" stroke="#5B89FF"/>
<circle cx="419" cy="49" r="3.5" transform="rotate(-180 419 49)" fill="#5B89FF" fill-opacity="0.3" stroke="#5B89FF"/>
<circle cx="427" cy="55" r="3.5" transform="rotate(-180 427 55)" fill="#5B89FF" fill-opacity="0.3" stroke="#5B89FF"/>
<circle cx="231" cy="62" r="3.5" transform="rotate(-180 231 62)" fill="#5B89FF" fill-opacity="0.3" stroke="#5B89FF"/>
<circle cx="136" cy="62" r="3.5" transform="rotate(-180 136 62)" fill="#5B89FF" fill-opacity="0.3" stroke="#5B89FF"/>
<circle cx="98" cy="57" r="3.5" transform="rotate(-180 98 57)" fill="#5B89FF" fill-opacity="0.3" stroke="#5B89FF"/>
<circle cx="34" cy="61" r="3.5" transform="rotate(-180 34 61)" fill="#5B89FF" fill-opacity="0.3" stroke="#5B89FF"/>
<circle cx="132" cy="53" r="3.5" transform="rotate(-180 132 53)" fill="#5B89FF" fill-opacity="0.3" stroke="#5B89FF"/>
<circle cx="140" cy="71" r="3.5" transform="rotate(-180 140 71)" fill="#5B89FF" fill-opacity="0.3" stroke="#5B89FF"/>
<circle cx="292" cy="63" r="3.5" transform="rotate(-180 292 63)" fill="#5B89FF" fill-opacity="0.3" stroke="#5B89FF"/>
<circle cx="715" cy="75" r="3.5" transform="rotate(-180 715 75)" fill="#5B89FF" fill-opacity="0.3" stroke="#5B89FF"/>
</svg>
