<svg width="503" height="662" viewBox="0 0 503 662" fill="none" xmlns="http://www.w3.org/2000/svg">
<g filter="url(#filter0_d_14442_57852)">
<rect x="35" y="31.9219" width="433" height="591" rx="8" fill="#1B1C23"/>
<rect x="35.5" y="32.4219" width="432" height="590" rx="7.5" stroke="#383F44"/>
</g>
<rect x="67" y="69.9219" width="48" height="48" rx="10" fill="#607AE3"/>
<path d="M91.0006 101.386L90.8823 101.525V108.587L91.0006 108.921L100.212 95.9453L91.0006 101.386Z" fill="white"/>
<path d="M91.0009 108.921V101.386L81.7891 95.9453L91.0009 108.921Z" fill="white"/>
<path d="M91.0001 78.9219L90.7983 79.6037V99.4398L91.0001 99.6416L100.205 94.2008L91.0001 78.9219Z" fill="white"/>
<path d="M91.0005 99.8012L100.205 94.2012L91.0005 90.1719V99.8012Z" fill="#405BCA"/>
<path d="M91.0009 78.9219L81.7891 94.2008L91.0009 99.6416V90.0123V78.9219Z" fill="white"/>
<path d="M81.7891 94.1885L91.0009 99.6293V90L81.7891 94.1885Z" fill="#5171F2"/>
<path d="M128.435 100.922V86.3764H137.895V88.5852H131.07V92.5341H137.405V94.7429H131.07V98.7131H137.952V100.922H128.435ZM145.917 90.0128V92.0014H139.646V90.0128H145.917ZM141.194 87.3991H143.765V97.6406C143.765 97.9863 143.817 98.2514 143.921 98.4361C144.03 98.616 144.172 98.7391 144.347 98.8054C144.522 98.8717 144.717 98.9048 144.93 98.9048C145.091 98.9048 145.237 98.893 145.37 98.8693C145.507 98.8456 145.612 98.8243 145.683 98.8054L146.116 100.815C145.978 100.863 145.782 100.915 145.526 100.972C145.275 101.028 144.968 101.062 144.603 101.071C143.959 101.09 143.379 100.993 142.863 100.78C142.347 100.562 141.937 100.226 141.634 99.7713C141.336 99.3168 141.189 98.7486 141.194 98.0668V87.3991ZM150.873 94.5298V100.922H148.301V86.3764H150.816V91.8665H150.944C151.199 91.2509 151.595 90.7656 152.13 90.4105C152.669 90.0507 153.356 89.8707 154.189 89.8707C154.947 89.8707 155.607 90.0294 156.171 90.3466C156.734 90.6638 157.17 91.1278 157.478 91.7386C157.79 92.3494 157.946 93.0952 157.946 93.9759V100.922H155.375V94.3736C155.375 93.6397 155.186 93.0691 154.807 92.6619C154.433 92.25 153.908 92.044 153.23 92.044C152.776 92.044 152.369 92.1435 152.009 92.3423C151.654 92.5365 151.374 92.8182 151.171 93.1875C150.972 93.5568 150.873 94.0043 150.873 94.5298ZM165.397 101.135C164.303 101.135 163.358 100.908 162.563 100.453C161.772 99.9938 161.164 99.3452 160.738 98.5071C160.311 97.6643 160.098 96.6723 160.098 95.5312C160.098 94.4091 160.311 93.4242 160.738 92.5767C161.168 91.7244 161.77 91.0616 162.542 90.5881C163.313 90.1098 164.22 89.8707 165.262 89.8707C165.934 89.8707 166.569 89.9796 167.165 90.1974C167.766 90.4105 168.297 90.742 168.756 91.1918C169.22 91.6416 169.585 92.2145 169.85 92.9105C170.115 93.6018 170.248 94.4257 170.248 95.3821V96.1705H161.306V94.4375H167.783C167.778 93.9451 167.672 93.5071 167.463 93.1236C167.255 92.7353 166.964 92.4299 166.59 92.2074C166.221 91.9848 165.79 91.8736 165.297 91.8736C164.772 91.8736 164.31 92.0014 163.912 92.2571C163.515 92.508 163.204 92.8395 162.982 93.2514C162.764 93.6586 162.653 94.1061 162.648 94.5938V96.1065C162.648 96.741 162.764 97.2855 162.996 97.7401C163.228 98.1899 163.552 98.5355 163.969 98.777C164.386 99.0137 164.873 99.1321 165.432 99.1321C165.806 99.1321 166.145 99.08 166.448 98.9759C166.751 98.867 167.014 98.7083 167.236 98.5C167.459 98.2917 167.627 98.0336 167.74 97.7259L170.141 97.9957C169.989 98.6302 169.701 99.1842 169.275 99.6577C168.853 100.126 168.313 100.491 167.655 100.751C166.997 101.007 166.244 101.135 165.397 101.135ZM172.423 100.922V90.0128H174.915V91.831H175.029C175.228 91.2012 175.569 90.7159 176.052 90.375C176.54 90.0294 177.096 89.8565 177.721 89.8565C177.863 89.8565 178.022 89.8636 178.197 89.8778C178.377 89.8873 178.526 89.9039 178.644 89.9276V92.2926C178.535 92.2547 178.362 92.2216 178.126 92.1932C177.894 92.16 177.669 92.1435 177.451 92.1435C176.982 92.1435 176.561 92.2453 176.187 92.4489C175.817 92.6477 175.526 92.9247 175.313 93.2798C175.1 93.6349 174.994 94.0445 174.994 94.5085V100.922H172.423ZM184.733 101.135C183.639 101.135 182.694 100.908 181.899 100.453C181.108 99.9938 180.5 99.3452 180.074 98.5071C179.647 97.6643 179.434 96.6723 179.434 95.5312C179.434 94.4091 179.647 93.4242 180.074 92.5767C180.504 91.7244 181.106 91.0616 181.877 90.5881C182.649 90.1098 183.556 89.8707 184.598 89.8707C185.27 89.8707 185.904 89.9796 186.501 90.1974C187.102 90.4105 187.633 90.742 188.092 91.1918C188.556 91.6416 188.921 92.2145 189.186 92.9105C189.451 93.6018 189.583 94.4257 189.583 95.3821V96.1705H180.642V94.4375H187.119C187.114 93.9451 187.008 93.5071 186.799 93.1236C186.591 92.7353 186.3 92.4299 185.926 92.2074C185.556 91.9848 185.126 91.8736 184.633 91.8736C184.108 91.8736 183.646 92.0014 183.248 92.2571C182.85 92.508 182.54 92.8395 182.318 93.2514C182.1 93.6586 181.989 94.1061 181.984 94.5938V96.1065C181.984 96.741 182.1 97.2855 182.332 97.7401C182.564 98.1899 182.888 98.5355 183.305 98.777C183.722 99.0137 184.209 99.1321 184.768 99.1321C185.142 99.1321 185.481 99.08 185.784 98.9759C186.087 98.867 186.35 98.7083 186.572 98.5C186.795 98.2917 186.963 98.0336 187.076 97.7259L189.477 97.9957C189.325 98.6302 189.037 99.1842 188.61 99.6577C188.189 100.126 187.649 100.491 186.991 100.751C186.333 101.007 185.58 101.135 184.733 101.135ZM198.712 96.3338V90.0128H201.283V100.922H198.79V98.983H198.676C198.43 99.5937 198.025 100.093 197.462 100.482C196.903 100.87 196.214 101.064 195.395 101.064C194.68 101.064 194.048 100.905 193.499 100.588C192.954 100.266 192.528 99.7997 192.22 99.1889C191.912 98.5734 191.759 97.83 191.759 96.9588V90.0128H194.33V96.5611C194.33 97.2524 194.519 97.8016 194.898 98.2088C195.277 98.616 195.774 98.8196 196.389 98.8196C196.768 98.8196 197.135 98.7273 197.49 98.5426C197.845 98.358 198.136 98.0833 198.364 97.7188C198.596 97.3494 198.712 96.8878 198.712 96.3338ZM203.926 100.922V90.0128H206.384V91.8665H206.512C206.739 91.2415 207.115 90.7538 207.641 90.4034C208.167 90.0483 208.794 89.8707 209.523 89.8707C210.262 89.8707 210.884 90.0507 211.391 90.4105C211.902 90.7656 212.262 91.2509 212.471 91.8665H212.584C212.826 91.2604 213.233 90.7775 213.806 90.4176C214.383 90.053 215.068 89.8707 215.858 89.8707C216.862 89.8707 217.681 90.188 218.316 90.8224C218.95 91.4569 219.267 92.3826 219.267 93.5994V100.922H216.689V93.9972C216.689 93.3201 216.509 92.8253 216.15 92.5128C215.79 92.1955 215.349 92.0369 214.828 92.0369C214.208 92.0369 213.723 92.2311 213.373 92.6193C213.027 93.0028 212.854 93.5024 212.854 94.1179V100.922H210.333V93.8906C210.333 93.3272 210.162 92.8774 209.821 92.5412C209.485 92.205 209.045 92.0369 208.5 92.0369C208.131 92.0369 207.795 92.1316 207.492 92.321C207.189 92.5057 206.947 92.7685 206.767 93.1094C206.587 93.4455 206.498 93.8385 206.498 94.2884V100.922H203.926Z" fill="#B8BECC"/>
<rect x="66.5" y="148.422" width="172" height="121" rx="7.5" stroke="#383F44"/>
<rect x="269.5" y="148.422" width="172" height="121" rx="7.5" stroke="#383F44"/>
<path d="M83.2195 238.744L77 234.026V255.922H227V203.9L220.78 224.226L216.024 203.9L212.732 191.922L200.659 203.9L180.171 228.218L168.098 210.07L163.341 236.566L153.463 234.026L142.854 238.744L139.561 224.226L136.268 231.122L132.976 224.226L118.707 236.566L105.537 238.744L99.3171 234.026L95.6585 240.922L89.439 234.026L83.2195 238.744Z" fill="url(#paint0_linear_14442_57852)"/>
<path d="M77 234.026L83.2195 238.744L89.439 234.026L95.6585 240.922L99.3171 234.026L105.537 238.744L118.707 236.566L132.976 224.226L136.268 231.122L139.561 224.226L142.854 238.744L153.463 234.026L163.341 236.566L168.098 210.07L180.171 228.218L200.659 203.9L212.732 191.922L216.024 203.9L220.78 224.226L227 203.9" stroke="#4477FF"/>
<path d="M400 209.422C400 219.242 396.891 228.809 391.119 236.754C385.347 244.698 377.209 250.612 367.869 253.646L363.559 240.379C370.096 238.255 375.793 234.115 379.834 228.554C383.874 222.993 386.05 216.296 386.05 209.422H400Z" fill="#8DE597"/>
<path d="M396.487 195.45C397.953 199.961 398.699 204.674 398.699 209.417L387.4 209.417C387.399 205.86 386.84 202.325 385.74 198.942L396.487 195.45Z" fill="#ECDC4E"/>
<path d="M367.494 166.44C372.004 167.908 376.255 170.077 380.09 172.867L373.443 182.005C370.566 179.912 367.378 178.286 363.996 177.184L367.494 166.44Z" fill="#3EA2FF"/>
<path d="M380.103 172.877C387.819 178.494 393.56 186.411 396.501 195.492L385.75 198.973C383.545 192.163 379.24 186.225 373.452 182.012L380.103 172.877Z" fill="#6E69D0"/>
<path d="M367.444 252.413C360.659 254.613 353.45 255.177 346.406 254.057C339.361 252.938 332.681 250.167 326.913 245.971C321.145 241.775 316.451 236.274 313.216 229.917C309.981 223.559 308.297 216.527 308.301 209.394C308.305 202.261 309.997 195.23 313.238 188.876C316.48 182.523 321.179 177.026 326.952 172.837C332.725 168.647 339.408 165.884 346.453 164.771C353.499 163.659 360.708 164.231 367.49 166.438L363.993 177.183C358.906 175.527 353.499 175.099 348.215 175.933C342.931 176.767 337.919 178.84 333.589 181.982C329.259 185.124 325.735 189.247 323.304 194.012C320.872 198.777 319.603 204.05 319.601 209.4C319.598 214.75 320.861 220.024 323.287 224.792C325.713 229.56 329.234 233.686 333.56 236.833C337.886 239.979 342.896 242.058 348.179 242.897C353.463 243.737 358.87 243.314 363.958 241.664L367.444 252.413Z" fill="#5B89FF"/>
<rect x="66.5" y="300.422" width="375" height="293" rx="7.5" stroke="#383F44"/>
<rect x="81" y="523.922" width="7" height="70" fill="#4477FF"/>
<rect x="96" y="427.922" width="7" height="166" fill="#4477FF"/>
<rect x="111" y="534.922" width="7" height="59" fill="#4477FF"/>
<rect x="126" y="554.922" width="7" height="39" fill="#4477FF"/>
<rect x="141" y="345.922" width="7" height="248" fill="#4477FF"/>
<rect x="156" y="523.922" width="7" height="70" fill="#4477FF"/>
<rect x="171" y="444.922" width="7" height="149" fill="#4477FF"/>
<rect x="186" y="528.922" width="7" height="65" fill="#4477FF"/>
<rect x="201" y="410.922" width="7" height="183" fill="#4477FF"/>
<rect x="216" y="396.922" width="7" height="197" fill="#4477FF"/>
<rect x="231" y="483.922" width="7" height="110" fill="#4477FF"/>
<rect x="246" y="392.922" width="7" height="201" fill="#4477FF"/>
<rect x="261" y="507.922" width="7" height="86" fill="#4477FF"/>
<rect x="276" y="554.922" width="7" height="39" fill="#4477FF"/>
<rect x="291" y="515.922" width="7" height="78" fill="#4477FF"/>
<rect x="306" y="444.922" width="7" height="149" fill="#4477FF"/>
<rect x="321" y="554.922" width="7" height="39" fill="#4477FF"/>
<rect x="336" y="334.922" width="7" height="259" fill="#4477FF"/>
<rect x="351" y="422.922" width="7" height="171" fill="#4477FF"/>
<rect x="366" y="334.922" width="7" height="259" fill="#4477FF"/>
<rect x="381" y="492.922" width="7" height="101" fill="#4477FF"/>
<rect x="396" y="459.922" width="7" height="134" fill="#4477FF"/>
<rect x="411" y="534.922" width="7" height="59" fill="#4477FF"/>
<rect x="426" y="507.922" width="7" height="86" fill="#4477FF"/>
<defs>
<filter id="filter0_d_14442_57852" x="0" y="0.921875" width="503" height="661" filterUnits="userSpaceOnUse" color-interpolation-filters="sRGB">
<feFlood flood-opacity="0" result="BackgroundImageFix"/>
<feColorMatrix in="SourceAlpha" type="matrix" values="0 0 0 0 0 0 0 0 0 0 0 0 0 0 0 0 0 0 127 0" result="hardAlpha"/>
<feOffset dy="4"/>
<feGaussianBlur stdDeviation="17.5"/>
<feComposite in2="hardAlpha" operator="out"/>
<feColorMatrix type="matrix" values="0 0 0 0 0 0 0 0 0 0 0 0 0 0 0 0 0 0 0.35 0"/>
<feBlend mode="normal" in2="BackgroundImageFix" result="effect1_dropShadow_14442_57852"/>
<feBlend mode="normal" in="SourceGraphic" in2="effect1_dropShadow_14442_57852" result="shape"/>
</filter>
<linearGradient id="paint0_linear_14442_57852" x1="152" y1="137.422" x2="152" y2="255.922" gradientUnits="userSpaceOnUse">
<stop stop-color="#4477FF"/>
<stop offset="1" stop-color="#4477FF" stop-opacity="0"/>
</linearGradient>
</defs>
</svg>
