<svg width="340" height="120" viewBox="0 0 340 120" fill="none" xmlns="http://www.w3.org/2000/svg">
<rect y="79" width="10" height="41" fill="#4477FF"/>
<rect x="22" width="10" height="120" fill="#4477FF"/>
<rect x="44" y="93" width="10" height="27" fill="#4477FF"/>
<rect x="66" y="60" width="10" height="60" fill="#4477FF"/>
<rect x="88" y="16" width="10" height="104" fill="#4477FF"/>
<rect x="110" y="79" width="10" height="41" fill="#4477FF"/>
<rect x="132" y="110" width="10" height="10" fill="#4477FF"/>
<rect x="154" y="71" width="10" height="49" fill="#4477FF"/>
<rect x="176" y="89" width="10" height="31" fill="#4477FF"/>
<rect x="198" y="71" width="10" height="49" fill="#4477FF"/>
<rect x="220" y="26" width="10" height="94" fill="#4477FF"/>
<rect x="242" y="79" width="10" height="41" fill="#4477FF"/>
<rect x="264" y="60" width="10" height="60" fill="#4477FF"/>
<rect x="286" y="98" width="10" height="22" fill="#4477FF"/>
<rect x="308" y="20" width="10" height="100" fill="#4477FF"/>
<rect x="330" y="66" width="10" height="54" fill="#4477FF"/>
</svg>
